<?xml version="1.0" encoding="utf-8"?>
<!-- Generator: Adobe Illustrator 17.0.2, SVG Export Plug-In . SVG Version: 6.00 Build 0)  -->
<!DOCTYPE svg PUBLIC "-//W3C//DTD SVG 1.1//EN" "http://www.w3.org/Graphics/SVG/1.1/DTD/svg11.dtd">
<svg version="1.1" id="Layer_1" xmlns="http://www.w3.org/2000/svg" xmlns:xlink="http://www.w3.org/1999/xlink" x="0px" y="0px"
	 width="653.203px" height="297.996px" viewBox="0 0 653.203 297.996" enable-background="new 0 0 653.203 297.996"
	 xml:space="preserve">
<g>
	<circle fill="#31BAEC" cx="643.99" cy="19.741" r="8.714"/>
	<circle fill="#31BAEC" cx="552.177" cy="121.521" r="16.183"/>
	<circle fill="#31BAEC" cx="643.99" cy="121.319" r="8.714"/>
	<circle fill="#31BAEC" cx="424.434" cy="121.521" r="8.714"/>
	<path fill="#31BAEC" d="M433.148,276.673c0,4.812-3.901,8.714-8.714,8.714c-4.812,0-8.714-3.901-8.714-8.714
		c0-4.812,4.621-8.714,9.434-8.714C429.966,267.959,433.148,271.86,433.148,276.673z"/>
	<g>
		<g>
			<path fill="none" stroke="#473C3D" stroke-width="8" stroke-linecap="round" stroke-linejoin="round" d="M625.73,6.13
				c0,0-27.884-14.44-45.312,31.867c-9.746,25.897-15.334,41.236-18.367,49.726"/>
			<g>
				<polygon fill="#473C3D" points="573.11,90.023 552.024,82.603 558.858,96.853 				"/>
			</g>
		</g>
	</g>
	<g>
		<g>
			<path fill="none" stroke="#473C3D" stroke-width="8" stroke-linecap="round" stroke-linejoin="round" d="M447.721,287.599
				c13.498,5.779,40.341,9.351,58.809-39.72c25.579-67.968,36.645-94.801,36.645-94.801"/>
			<g>
				<polygon fill="#473C3D" points="454.479,278.403 443.719,297.996 439.305,282.821 				"/>
			</g>
		</g>
	</g>
	<g>
		<g>
			
				<line fill="none" stroke="#473C3D" stroke-width="8" stroke-linecap="round" stroke-linejoin="round" x1="453.249" y1="121.521" x2="521.425" y2="121.521"/>
			<g>
				<polygon fill="#473C3D" points="454.748,110.345 454.748,132.698 443.574,121.521 				"/>
			</g>
		</g>
	</g>
	<g>
		<g>
			
				<line fill="none" stroke="#473C3D" stroke-width="8" stroke-linecap="round" stroke-linejoin="round" x1="582.77" y1="121.521" x2="616.386" y2="121.521"/>
			<g>
				<polygon fill="#473C3D" points="614.887,110.345 614.887,132.698 626.061,121.521 				"/>
			</g>
		</g>
	</g>
</g>
<g>
	<path fill="#31BAEC" d="M43.733,161.639c13.647,0,21.701,10.18,21.701,21.701c0,11.746-8.166,21.366-21.701,21.366h-1.902
		l23.268,35.013v0.224h-3.132L38.7,204.707H17.557v35.236h-2.908v-78.304L43.733,161.639L43.733,161.639z M17.557,164.323v37.81
		h26.176c11.634,0,18.681-8.501,18.681-18.793c0-10.291-6.936-19.017-18.681-19.017H17.557z"/>
	<path fill="#31BAEC" d="M133.11,164.323H87.359v36.02h42.955v2.573H87.359v34.342h45.751v2.685H84.45v-78.304h48.66L133.11,164.323
		L133.11,164.323z"/>
	<path d="M199.444,168.238h-39.823v30.092h36.803v6.6h-36.803v35.013h-7.83v-78.304h47.653V168.238z"/>
	<path d="M223.159,233.343h35.684v6.6h-43.514v-78.304h7.83L223.159,233.343L223.159,233.343z"/>
	<path d="M342.068,200.791c0,22.26-18.233,40.382-40.606,40.382s-40.606-18.122-40.606-40.382c0-22.261,18.233-40.383,40.606-40.383
		S342.068,178.53,342.068,200.791z M268.911,200.791c0,18.681,14.766,33.223,32.552,33.223c17.898,0,32.551-14.542,32.551-33.223
		c0-18.682-14.653-33.224-32.551-33.224C283.676,167.567,268.911,182.109,268.911,200.791z"/>
	<path d="M428.201,239.942h-7.271l-19.8-63.649l-19.8,63.649h-7.271l-24.834-78.304h7.942l20.807,65.552l19.799-62.979h6.712
		l19.688,62.979l25.238-65.552h7.942L428.201,239.942z"/>
</g>
</svg>
